# xmcd
#
# Track frame offsets: 
#        182
#        11950
#        21657
#        39182
#        55927
#        76355
#        97052
#        110437
#        115132
#        127085
#        144715
#        149342
#        155012
#        163300
#        174652
#        184170
#        200832
#        232250
#
# Disc length: 3333 seconds
#
# Revision: 2
# Processed by: cddbd v1.5.2PL0 Copyright (c) Steve Scherf et al.
# Submitted via: ExactAudioCopyFreeDBPlugin 1.0
#
DISCID=160d0312
DTITLE=Collection - Came So Far
DYEAR=1995
DGENRE=Blues
TTITLE0=Marie Manning - Hard Luck And Trouble
TTITLE1=Bishop Manning - Gospel Train
TTITLE2=Captain Luke - Rainy Night In Georgia
TTITLE3=Captain Luke - I Don't Want No Woman
TTITLE4=JohnLee Zeigler - Going Away
TTITLE5=J.W. Warren - Have You Seen Corinna?
TTITLE6=J.W. Warren - Looking For My Woman
TTITLE7=Rufus McKenzie - Whooping The Blues
TTITLE8=Macavine Hayes - Sweet Little Angel
TTITLE9=Macavine Hayes - Goodbye Johnny B. Goode
TTITLE10=Lucille Lindsey an d Guitar Gabriel - Fly Around Heaven All D
TTITLE10=ay
TTITLE11=Lucille Lindsey and Guitar Gabriel - Trying To Make 100
TTITLE12=Samuel Turner Stevens - Marching Through Georgia
TTITLE13=Samuel Turner Stevens - T For Texas
TTITLE14=Bishop Manning  - Questionnaire Blues
TTITLE15=Big Boy Henry - Vellevina
TTITLE16=Pernell King and Guitar Gabriel - Late In The Evening
TTITLE17=Guitar Gabriel - Key To The Highway
EXTD=
EXTT0=Marie Manning\n
EXTT1=Bishop Manning\n
EXTT2=Captain Luke\n
EXTT3=Captain Luke\n
EXTT4=John Lee Ziegler\n
EXTT5=J.W. Warren\n
EXTT6=J.W. Warren\n
EXTT7=Rufus McKenzie\n
EXTT8=Macavine Hayes\n
EXTT9=Macavine Hayes\n
EXTT10=Lucile Linsey and Guitar Gabriel\n
EXTT11=Lucille Lindsey and Guitar Gabriel\n
EXTT12=Samuel Turner Stevens\n
EXTT13=Samuel Turner Stevens\n
EXTT14=Bishop Manning\n
EXTT15=Big Boy Henry and Guitar Gabriel\n
EXTT16=Pernell King and Guitar Gabriel\n
EXTT17=Guitar Gabriel\n
PLAYORDER=
